<svg version="1" xmlns="http://www.w3.org/2000/svg" width="346.667" height="346.667" viewBox="0 0 260.000000 260.000000"><path d="M82 2.1C68.3 5.6 55.3 13.5 43.7 25.4c-8.1 8.4-13.3 15.2-20.2 26.7-9.1 15.2-20.1 44.8-23 61.7l-.7 4.2h38.6c36.1 0 38.6-.1 38.7-1.8.2-3.7.9-10 1.9-16.7 1-6 1.8-10.3 4.4-24 4.7-24.1 18-52.4 30.8-65.6 2.5-2.6 4.3-5.1 3.9-5.7C115.8.5 93.4-.8 82 2.1z"/><path d="M147.3 1.4c-22.4 5.5-39.8 25.5-50.4 58.1-1.7 5.1-4.6 15.6-5.3 19-5 24.1-3.9 28.9 2.3 9.8 5.3-16 15.6-37.2 21.2-43.6 16.6-18.9 32.4-6.9 48.2 36.8 2 5.5 5.3 15.6 7.2 22.4 1.9 6.8 3.8 12.7 4.1 13.2.3.5 19.2.9 43 .9h42.5l-.7-3.8c-3.2-19.1-12.9-45.1-23-62.2-15.1-25.7-33-41.7-54.4-49-8-2.7-26.6-3.5-34.7-1.6zM.6 146.2c1 6.6 6.1 24.1 10.1 34.7 12.5 33.6 33.4 59.9 57.1 72 8.4 4.3 16.5 6.3 27.2 6.6 13 .5 19.4-.7 28.7-5.1 12.7-6.1 24.9-19.9 33-37.4 3.9-8.3 9.7-26.2 11.8-36.5.9-4.4 1.9-8.9 2.1-10 2.9-13.9.4-14.1-4.1-.2-2 6.1-4.2 12.5-5 14.2-.7 1.6-2.1 5-3.1 7.5-5.2 13.1-15.1 26.8-21.7 30.2-16.8 8.5-32-13.8-48.9-71.7l-2.4-8-42.7-.3L0 142l.6 4.2z"/><path d="M182.9 143.7c-.2 4-2.1 18.5-3.4 25.3-.1.8-.6 3.5-1 6-1.3 8-5.4 23.4-8.5 32.3-7 19.8-14.9 33.4-26.3 45-1.5 1.6-2.5 3.2-2.2 3.7 2.1 3.4 26.8 4.5 37.3 1.7 35.1-9.4 65-48.6 78.7-103 1.4-5.9 2.4-11.1 2-11.7-.4-.6-13.9-1-38.6-1-35.4 0-37.9.1-38 1.7z"/></svg>